<?xml version="1.0" encoding="utf-8"?>
<svg xmlns="http://www.w3.org/2000/svg" width="271.8" height="87.50634146341464" viewBox="0 0 410 132" class="looka-1j8o68f" xmlns:bx="https://boxy-svg.com"><defs id="SvgjsDefs5372"><bx:export><bx:file format="svg"/><bx:file format="jpeg"/><bx:file format="webp"/></bx:export></defs><g id="SvgjsG5373" featurekey="rootContainer" transform="matrix(1,0,0,1,0,0)" fill="#000000"><rect xmlns="http://www.w3.org/2000/svg" width="410" height="132" rx="10" ry="10"/></g><g id="SvgjsG5374" featurekey="HKaMnE-0" transform="matrix(1.439144736842105,0,0,1.439144736842105,20,20)" fill="#ffffff"><g xmlns="http://www.w3.org/2000/svg"><g><g><path d="M62,34H50c-1.104,0-2-0.896-2-2s0.896-2,2-2h12c1.104,0,2,0.896,2,2S63.104,34,62,34z"/></g><g><path d="M34,34H2c-1.104,0-2-0.896-2-2s0.896-2,2-2h32c1.104,0,2,0.896,2,2S35.104,34,34,34z"/></g><g><path d="M42,34c-0.53,0-1.04-0.21-1.41-0.59C40.21,33.04,40,32.53,40,32c0-0.53,0.21-1.04,0.59-1.41c0.74-0.75,2.08-0.75,2.82,0     C43.79,30.96,44,31.48,44,32c0,0.53-0.21,1.04-0.59,1.41C43.04,33.79,42.53,34,42,34z"/></g><g><g><path d="M56,26c-1.104,0-2-0.896-2-2V6c0-1.103-0.897-2-2-2H12c-1.103,0-2,0.897-2,2v18c0,1.104-0.896,2-2,2s-2-0.896-2-2V6      c0-3.309,2.691-6,6-6h40c3.309,0,6,2.691,6,6v18C58,25.104,57.104,26,56,26z"/></g><g><path d="M52,64H12c-3.309,0-6-2.691-6-6V40c0-1.104,0.896-2,2-2s2,0.896,2,2v18c0,1.103,0.897,2,2,2h40c1.103,0,2-0.897,2-2V40      c0-1.104,0.896-2,2-2s2,0.896,2,2v18C58,61.309,55.309,64,52,64z"/></g></g></g></g></g><g id="SvgjsG5375" featurekey="J3GnXt-0" transform="matrix(3.0967176527132,0,0,3.0967176527132,129.08908449093894,26.888017500368374)" fill="#ffffff"><path d="M8.32 5.48 c2.1066 0 3.8634 0.69998 5.27 2.1 s2.11 3.18 2.11 5.34 c0 1.3733 -0.31334 2.63 -0.94 3.77 s-1.51 2.0366 -2.65 2.69 s-2.4034 0.98 -3.79 0.98 c-1.3733 0 -2.6266 -0.32334 -3.76 -0.97 s-2.02 -1.54 -2.66 -2.68 s-0.96 -2.4034 -0.96 -3.79 c0 -2.1066 0.69 -3.8734 2.07 -5.3 s3.15 -2.14 5.31 -2.14 z M2.98 12.92 c0 1.6 0.49998 2.94 1.5 4.02 s2.28 1.62 3.84 1.62 c1.5333 0 2.8066 -0.53334 3.82 -1.6 s1.52 -2.4134 1.52 -4.04 c0 -1.6133 -0.5 -2.9566 -1.5 -4.03 s-2.2866 -1.61 -3.86 -1.61 c-1.52 0 -2.7866 0.53334 -3.8 1.6 s-1.52 2.4134 -1.52 4.04 z M19.8 4.880000000000001 l0.000019531 7.1 l0.04 0 c0.25334 -0.53334 0.66334 -0.95 1.23 -1.25 s1.1967 -0.45 1.89 -0.45 c1.0533 0 1.89 0.32 2.51 0.96 s0.93 1.5 0.93 2.58 l0 6.18 l-1.8 0 l0 -5.66 c0 -0.73334 -0.19 -1.3133 -0.57 -1.74 s-0.91 -0.64 -1.59 -0.64 c-0.84 0 -1.4867 0.27334 -1.94 0.82 s-0.68668 1.3 -0.70002 2.26 l0 4.96 l-1.8 0 l0 -15.12 l1.8 0 z M33.64 5.48 c1.84 0 3.2 0.54006 4.08 1.6201 l-1.56 1.42 c-0.24 -0.37334 -0.58 -0.67334 -1.02 -0.9 s-0.94666 -0.34 -1.52 -0.34 c-0.82666 0 -1.49 0.20334 -1.99 0.61 s-0.75 0.93 -0.75 1.57 c0 1.0667 0.70666 1.8133 2.12 2.24 l1.78 0.58 c1 0.32 1.7633 0.76666 2.29 1.34 s0.79 1.36 0.79 2.36 c0 1.3067 -0.46334 2.3634 -1.39 3.17 s-2.1034 1.21 -3.53 1.21 c-2.04 0 -3.5466 -0.65334 -4.52 -1.96 l1.58 -1.36 c0.30666 0.48 0.72666 0.85334 1.26 1.12 s1.1133 0.4 1.74 0.4 c0.78666 0 1.4533 -0.22666 2 -0.68 s0.82 -1.0133 0.82 -1.68 c0 -0.49334 -0.16666 -0.90668 -0.5 -1.24 s-0.93334 -0.63334 -1.8 -0.9 l-1.26 -0.42 c-1.2667 -0.42666 -2.1534 -0.97 -2.66 -1.63 s-0.76 -1.51 -0.76 -2.55 c0 -1.1067 0.44666 -2.0466 1.34 -2.82 s2.0466 -1.16 3.46 -1.16 z M44.580000000000005 10.28 c1.4533 0 2.5834 0.45664 3.39 1.37 s1.2167 2.17 1.23 3.77 l0 0.5 l-7.6 0 c0 0.77334 0.31 1.4233 0.93 1.95 s1.3767 0.79666 2.27 0.81 c0.98666 0 1.8533 -0.47334 2.6 -1.42 l1.36 1.04 c-1.0133 1.2933 -2.4134 1.94 -4.2 1.94 c-1.4533 0 -2.6234 -0.46334 -3.51 -1.39 s-1.3433 -2.1234 -1.37 -3.59 c0 -1.4133 0.45666 -2.59 1.37 -3.53 s2.09 -1.4233 3.53 -1.45 z M47.28 14.48 c-0.02666 -0.89334 -0.28 -1.5767 -0.76 -2.05 s-1.14 -0.71 -1.98 -0.71 c-0.56 0 -1.0633 0.13666 -1.51 0.41 s-0.79666 0.62668 -1.05 1.06 s-0.38 0.86334 -0.38 1.29 l5.68 0 z M55.16 10.28 c1.2 0 2.15 0.27328 2.85 0.81994 s1.07 1.3067 1.11 2.28 l0 5.08 c0 0.48 0.02666 0.99334 0.08 1.54 l-1.6 0 c-0.04 -0.42666 -0.06 -0.90666 -0.06 -1.44 l-0.04 0 c-0.41334 0.61334 -0.89 1.0467 -1.43 1.3 s-1.17 0.38 -1.89 0.38 c-0.97334 0 -1.7633 -0.26 -2.37 -0.78 s-0.91 -1.2067 -0.91 -2.06 c0 -1.08 0.45334 -1.8967 1.36 -2.45 s2.1866 -0.83 3.84 -0.83 l1.34 0 l0 -0.34 c0 -0.64 -0.21 -1.1433 -0.63 -1.51 s-0.97 -0.55 -1.65 -0.55 c-0.50666 0 -0.95 0.07666 -1.33 0.23 s-0.83 0.43668 -1.35 0.85002 l-1.08 -1.12 c1.0267 -0.90666 2.28 -1.3733 3.76 -1.4 z M52.7 17.259999999999998 c0 1.0267 0.68002 1.54 2.04 1.54 c0.81334 0 1.4633 -0.24334 1.95 -0.73 s0.73666 -1.19 0.75 -2.11 l0 -0.52 l-1.02 0 c-1.1733 0 -2.0866 0.15 -2.74 0.45 s-0.98 0.75666 -0.98 1.37 z M68.38 5.84 l6.06 14.16 l-2.24 0 l-1.42 -3.5 l-6.74 0 l-1.4 3.5 l-2.24 0 l6.24 -14.16 l1.74 0 z M64.72 14.82 l5.36 0 l-2.64 -6.5 l-0.04 0 z M77.62 4.880000000000001 l0.000019531 7.1 l0.04 0 c0.25334 -0.53334 0.66334 -0.95 1.23 -1.25 s1.1967 -0.45 1.89 -0.45 c1.0533 0 1.89 0.32 2.51 0.96 s0.93 1.5 0.93 2.58 l0 6.18 l-1.8 0 l0 -5.66 c0 -0.73334 -0.19 -1.3133 -0.57 -1.74 s-0.91 -0.64 -1.59 -0.64 c-0.84 0 -1.4867 0.27334 -1.94 0.82 s-0.68668 1.3 -0.70002 2.26 l0 4.96 l-1.8 0 l0 -15.12 l1.8 0 z"/></g></svg>